<svg width="104" height="56" viewBox="0 0 104 56" fill="none" xmlns="http://www.w3.org/2000/svg">
<path d="M8.90692 46.0454C7.08532 46.0454 5.76052 45.6077 4.93252 44.7324C4.10451 43.8807 3.69051 42.5796 3.69051 40.829V34.8674C3.69051 33.306 2.898 32.478 1.31297 32.3834V30.4317C2.898 30.3607 3.69051 29.5445 3.69051 27.9831V22.0215C3.69051 20.2709 4.10451 18.9698 4.93252 18.1181C5.76052 17.2428 7.08532 16.8051 8.90692 16.8051H10.1134V19.1827H8.83594C8.05526 19.1827 7.49932 19.4074 7.16812 19.8569C6.86057 20.2827 6.7068 20.957 6.7068 21.8796V27.9122C6.7068 28.7875 6.5412 29.4972 6.21 30.0413C5.90246 30.5854 5.33469 31.0467 4.50669 31.4253C5.31103 31.7801 5.8788 32.2533 6.21 32.8447C6.56486 33.4125 6.74229 34.1103 6.74229 34.9383V40.9709C6.74229 41.8935 6.89606 42.5678 7.2036 42.9936C7.51114 43.4431 8.05526 43.6678 8.83594 43.6678H10.1134V46.0454H8.90692ZM93.3177 43.6678H94.5952C95.3759 43.6678 95.92 43.4431 96.2276 42.9936C96.5351 42.5678 96.6889 41.8935 96.6889 40.9709V34.9383C96.6889 34.1103 96.8545 33.4125 97.1857 32.8447C97.5405 32.2533 98.1201 31.7801 98.9245 31.4253C98.0965 31.0467 97.5169 30.5854 97.1857 30.0413C96.8781 29.4972 96.7244 28.7875 96.7244 27.9122V21.8796C96.7244 20.957 96.5588 20.2827 96.2276 19.8569C95.92 19.4074 95.3759 19.1827 94.5952 19.1827H93.3177V16.8051H94.5243C96.3459 16.8051 97.6707 17.2428 98.4987 18.1181C99.3503 18.9698 99.7761 20.2709 99.7761 22.0215V27.9831C99.7761 29.5445 100.557 30.3607 102.118 30.4317V32.3834C100.533 32.478 99.7407 33.306 99.7407 34.8674V40.829C99.7407 42.5796 99.3267 43.8807 98.4987 44.7324C97.6707 45.6077 96.3459 46.0454 94.5243 46.0454H93.3177V43.6678Z" fill="#3F3F46"/>
<path d="M63.7725 42.3549C62.1639 42.3549 60.6498 42.0118 59.2304 41.3258C57.8346 40.6397 56.7109 39.6934 55.8592 38.4869L57.8464 36.4997C58.5798 37.446 59.5024 38.2149 60.6143 38.8063C61.7262 39.3741 62.8263 39.6579 63.9145 39.6579C65.3103 39.6579 66.434 39.3031 67.2856 38.5934C68.1609 37.8837 68.5986 36.9492 68.5986 35.79C68.5986 35.033 68.4448 34.3706 68.1373 33.8028C67.8534 33.235 67.3448 32.6909 66.6114 32.1705C65.9017 31.6263 64.8844 31.0349 63.5596 30.3962C61.0283 29.166 59.2422 28.0068 58.2013 26.9186C57.184 25.8067 56.6754 24.5174 56.6754 23.0506C56.6754 21.1581 57.3615 19.644 58.7336 18.5085C60.1057 17.3729 61.9273 16.8051 64.1984 16.8051C65.7834 16.8051 67.2265 17.1482 68.5276 17.8342C69.8524 18.5203 70.8105 19.4429 71.402 20.6021L69.2728 22.1635C68.7051 21.3355 67.9717 20.6849 67.0727 20.2118C66.1737 19.7386 65.2275 19.5021 64.2339 19.5021C62.9091 19.5021 61.8563 19.8214 61.0756 20.4602C60.3186 21.0753 59.9401 21.9151 59.9401 22.9797C59.9401 23.6184 60.082 24.1625 60.3659 24.612C60.6498 25.0615 61.1703 25.5346 61.9273 26.0314C62.708 26.5046 63.9263 27.1551 65.5823 27.9831C67.8297 29.095 69.4384 30.2424 70.4084 31.4253C71.3783 32.5845 71.8633 33.9566 71.8633 35.5416C71.8633 36.8901 71.5203 38.0847 70.8342 39.1257C70.1718 40.1429 69.2255 40.9354 67.9953 41.5032C66.7888 42.071 65.3812 42.3549 63.7725 42.3549ZM82.555 42.3549C80.9463 42.3549 79.4323 42.0118 78.0129 41.3258C76.6171 40.6397 75.4934 39.6934 74.6417 38.4869L76.6289 36.4997C77.3623 37.446 78.2849 38.2149 79.3968 38.8063C80.5087 39.3741 81.6087 39.6579 82.697 39.6579C84.0927 39.6579 85.2165 39.3031 86.0681 38.5934C86.9434 37.8837 87.3811 36.9492 87.3811 35.79C87.3811 35.033 87.2273 34.3706 86.9198 33.8028C86.6359 33.235 86.1273 32.6909 85.3939 32.1705C84.6842 31.6263 83.6669 31.0349 82.3421 30.3962C79.8108 29.166 78.0247 28.0068 76.9838 26.9186C75.9665 25.8067 75.4579 24.5174 75.4579 23.0506C75.4579 21.1581 76.1439 19.644 77.5161 18.5085C78.8882 17.3729 80.7098 16.8051 82.9809 16.8051C84.5659 16.8051 86.009 17.1482 87.3101 17.8342C88.6349 18.5203 89.593 19.4429 90.1845 20.6021L88.0553 22.1635C87.4875 21.3355 86.7542 20.6849 85.8552 20.2118C84.9562 19.7386 84.0099 19.5021 83.0163 19.5021C81.6915 19.5021 80.6388 19.8214 79.8581 20.4602C79.1011 21.0753 78.7226 21.9151 78.7226 22.9797C78.7226 23.6184 78.8645 24.1625 79.1484 24.612C79.4323 25.0615 79.9527 25.5346 80.7098 26.0314C81.4905 26.5046 82.7088 27.1551 84.3648 27.9831C86.6122 29.095 88.2209 30.2424 89.1909 31.4253C90.1608 32.5845 90.6458 33.9566 90.6458 35.5416C90.6458 36.8901 90.3027 38.0847 89.6167 39.1257C88.9543 40.1429 88.008 40.9354 86.7778 41.5032C85.5713 42.071 84.1637 42.3549 82.555 42.3549Z" fill="#18181B"/>
<path fill-rule="evenodd" clip-rule="evenodd" d="M23.0957 44.2979C28.1192 44.2979 32.1915 37.9632 32.1915 30.1489C32.1915 22.3347 28.1192 16 23.0957 16C18.0723 16 14 22.3347 14 30.1489C14 37.9632 18.0723 44.2979 23.0957 44.2979ZM23.0957 42.2766C25.6972 42.2766 28.0043 40.338 29.44 37.3485C28.7497 37.9146 27.9673 38.2341 27.1383 38.2341C24.3475 38.2341 22.0851 34.6142 22.0851 30.1489C22.0851 25.6837 24.3475 22.0638 27.1383 22.0638C27.9673 22.0638 28.7497 22.3832 29.44 22.9493C28.0043 19.9599 25.6972 18.0213 23.0957 18.0213C18.7421 18.0213 15.2128 23.451 15.2128 30.149C15.2128 36.8469 18.7421 42.2766 23.0957 42.2766ZM29.1596 30.9575C30.1643 30.9575 30.9787 29.6905 30.9787 28.1277C30.9787 26.5648 30.1643 25.2979 29.1596 25.2979C28.1549 25.2979 27.3404 26.5648 27.3404 28.1277C27.3404 29.6905 28.1549 30.9575 29.1596 30.9575Z" fill="#84CC16"/>
<path fill-rule="evenodd" clip-rule="evenodd" d="M42.9042 44.2979C47.9229 44.2979 51.9923 37.9751 52 30.1711L52 30.1489L52 30.1268C51.9923 22.3228 47.923 16 42.9042 16C37.8808 16 33.8085 22.3347 33.8085 30.1489C33.8085 37.9632 37.8808 44.2979 42.9042 44.2979ZM42.9043 42.2766C45.5057 42.2766 47.8128 40.338 49.2485 37.3485C48.5582 37.9146 47.7758 38.2341 46.9468 38.2341C44.156 38.2341 41.8936 34.6142 41.8936 30.1489C41.8936 25.6837 44.156 22.0638 46.9468 22.0638C47.7758 22.0638 48.5582 22.3832 49.2485 22.9493C47.8128 19.9599 45.5057 18.0213 42.9043 18.0213C38.5506 18.0213 35.0213 23.451 35.0213 30.149C35.0213 36.8469 38.5506 42.2766 42.9043 42.2766ZM48.9681 30.9575C49.9728 30.9575 50.7872 29.6905 50.7872 28.1277C50.7872 26.5648 49.9728 25.2979 48.9681 25.2979C47.9634 25.2979 47.1489 26.5648 47.1489 28.1277C47.1489 29.6905 47.9634 30.9575 48.9681 30.9575Z" fill="#84CC16"/>
</svg>
